<?xml version="1.0" encoding="utf-8" standalone="no"?>
<!DOCTYPE svg PUBLIC "-//W3C//DTD SVG 1.1//EN"
  "http://www.w3.org/Graphics/SVG/1.1/DTD/svg11.dtd">
<svg xmlns:xlink="http://www.w3.org/1999/xlink" width="864pt" height="864pt" viewBox="0 0 864 864" xmlns="http://www.w3.org/2000/svg" version="1.1">
 <metadata>
  <rdf:RDF xmlns:dc="http://purl.org/dc/elements/1.1/" xmlns:cc="http://creativecommons.org/ns#" xmlns:rdf="http://www.w3.org/1999/02/22-rdf-syntax-ns#">
   <cc:Work>
    <dc:type rdf:resource="http://purl.org/dc/dcmitype/StillImage"/>
    <dc:date>2022-04-04T22:17:13.526563</dc:date>
    <dc:format>image/svg+xml</dc:format>
    <dc:creator>
     <cc:Agent>
      <dc:title>Matplotlib v3.5.1, https://matplotlib.org/</dc:title>
     </cc:Agent>
    </dc:creator>
   </cc:Work>
  </rdf:RDF>
 </metadata>
 <defs>
  <style type="text/css">*{stroke-linejoin: round; stroke-linecap: butt}</style>
 </defs>
 <g id="figure_1">
  <g id="patch_1">
   <path d="M 0 864 
L 864 864 
L 864 0 
L 0 0 
L 0 864 
z
" style="fill: none"/>
  </g>
  <g id="axes_1">
   <g id="patch_2">
    <path d="M 108 756 
L 777.6 756 
L 777.6 103.68 
L 108 103.68 
z
" style="fill: #ffffff"/>
   </g>
   <g id="matplotlib.axis_1">
    <g id="xtick_1">
     <g id="line2d_1">
      <defs>
       <path id="m8e184b581f" d="M 0 0 
L 0 3.5 
" style="stroke: #000000; stroke-width: 0.8"/>
      </defs>
      <g>
       <use xlink:href="#m8e184b581f" x="138.436364" y="756" style="stroke: #000000; stroke-width: 0.8"/>
      </g>
     </g>
     <g id="text_1">
      <!-- 0 -->
      <g transform="translate(135.255114 770.598438)scale(0.1 -0.1)">
       <defs>
        <path id="DejaVuSans-30" d="M 2034 4250 
Q 1547 4250 1301 3770 
Q 1056 3291 1056 2328 
Q 1056 1369 1301 889 
Q 1547 409 2034 409 
Q 2525 409 2770 889 
Q 3016 1369 3016 2328 
Q 3016 3291 2770 3770 
Q 2525 4250 2034 4250 
z
M 2034 4750 
Q 2819 4750 3233 4129 
Q 3647 3509 3647 2328 
Q 3647 1150 3233 529 
Q 2819 -91 2034 -91 
Q 1250 -91 836 529 
Q 422 1150 422 2328 
Q 422 3509 836 4129 
Q 1250 4750 2034 4750 
z
" transform="scale(0.015625)"/>
       </defs>
       <use xlink:href="#DejaVuSans-30"/>
      </g>
     </g>
    </g>
    <g id="xtick_2">
     <g id="line2d_2">
      <g>
       <use xlink:href="#m8e184b581f" x="222.421915" y="756" style="stroke: #000000; stroke-width: 0.8"/>
      </g>
     </g>
     <g id="text_2">
      <!-- 1000 -->
      <g transform="translate(209.696915 770.598438)scale(0.1 -0.1)">
       <defs>
        <path id="DejaVuSans-31" d="M 794 531 
L 1825 531 
L 1825 4091 
L 703 3866 
L 703 4441 
L 1819 4666 
L 2450 4666 
L 2450 531 
L 3481 531 
L 3481 0 
L 794 0 
L 794 531 
z
" transform="scale(0.015625)"/>
       </defs>
       <use xlink:href="#DejaVuSans-31"/>
       <use xlink:href="#DejaVuSans-30" x="63.623047"/>
       <use xlink:href="#DejaVuSans-30" x="127.246094"/>
       <use xlink:href="#DejaVuSans-30" x="190.869141"/>
      </g>
     </g>
    </g>
    <g id="xtick_3">
     <g id="line2d_3">
      <g>
       <use xlink:href="#m8e184b581f" x="306.407465" y="756" style="stroke: #000000; stroke-width: 0.8"/>
      </g>
     </g>
     <g id="text_3">
      <!-- 2000 -->
      <g transform="translate(293.682465 770.598438)scale(0.1 -0.1)">
       <defs>
        <path id="DejaVuSans-32" d="M 1228 531 
L 3431 531 
L 3431 0 
L 469 0 
L 469 531 
Q 828 903 1448 1529 
Q 2069 2156 2228 2338 
Q 2531 2678 2651 2914 
Q 2772 3150 2772 3378 
Q 2772 3750 2511 3984 
Q 2250 4219 1831 4219 
Q 1534 4219 1204 4116 
Q 875 4013 500 3803 
L 500 4441 
Q 881 4594 1212 4672 
Q 1544 4750 1819 4750 
Q 2544 4750 2975 4387 
Q 3406 4025 3406 3419 
Q 3406 3131 3298 2873 
Q 3191 2616 2906 2266 
Q 2828 2175 2409 1742 
Q 1991 1309 1228 531 
z
" transform="scale(0.015625)"/>
       </defs>
       <use xlink:href="#DejaVuSans-32"/>
       <use xlink:href="#DejaVuSans-30" x="63.623047"/>
       <use xlink:href="#DejaVuSans-30" x="127.246094"/>
       <use xlink:href="#DejaVuSans-30" x="190.869141"/>
      </g>
     </g>
    </g>
    <g id="xtick_4">
     <g id="line2d_4">
      <g>
       <use xlink:href="#m8e184b581f" x="390.393016" y="756" style="stroke: #000000; stroke-width: 0.8"/>
      </g>
     </g>
     <g id="text_4">
      <!-- 3000 -->
      <g transform="translate(377.668016 770.598438)scale(0.1 -0.1)">
       <defs>
        <path id="DejaVuSans-33" d="M 2597 2516 
Q 3050 2419 3304 2112 
Q 3559 1806 3559 1356 
Q 3559 666 3084 287 
Q 2609 -91 1734 -91 
Q 1441 -91 1130 -33 
Q 819 25 488 141 
L 488 750 
Q 750 597 1062 519 
Q 1375 441 1716 441 
Q 2309 441 2620 675 
Q 2931 909 2931 1356 
Q 2931 1769 2642 2001 
Q 2353 2234 1838 2234 
L 1294 2234 
L 1294 2753 
L 1863 2753 
Q 2328 2753 2575 2939 
Q 2822 3125 2822 3475 
Q 2822 3834 2567 4026 
Q 2313 4219 1838 4219 
Q 1578 4219 1281 4162 
Q 984 4106 628 3988 
L 628 4550 
Q 988 4650 1302 4700 
Q 1616 4750 1894 4750 
Q 2613 4750 3031 4423 
Q 3450 4097 3450 3541 
Q 3450 3153 3228 2886 
Q 3006 2619 2597 2516 
z
" transform="scale(0.015625)"/>
       </defs>
       <use xlink:href="#DejaVuSans-33"/>
       <use xlink:href="#DejaVuSans-30" x="63.623047"/>
       <use xlink:href="#DejaVuSans-30" x="127.246094"/>
       <use xlink:href="#DejaVuSans-30" x="190.869141"/>
      </g>
     </g>
    </g>
    <g id="xtick_5">
     <g id="line2d_5">
      <g>
       <use xlink:href="#m8e184b581f" x="474.378567" y="756" style="stroke: #000000; stroke-width: 0.8"/>
      </g>
     </g>
     <g id="text_5">
      <!-- 4000 -->
      <g transform="translate(461.653567 770.598438)scale(0.1 -0.1)">
       <defs>
        <path id="DejaVuSans-34" d="M 2419 4116 
L 825 1625 
L 2419 1625 
L 2419 4116 
z
M 2253 4666 
L 3047 4666 
L 3047 1625 
L 3713 1625 
L 3713 1100 
L 3047 1100 
L 3047 0 
L 2419 0 
L 2419 1100 
L 313 1100 
L 313 1709 
L 2253 4666 
z
" transform="scale(0.015625)"/>
       </defs>
       <use xlink:href="#DejaVuSans-34"/>
       <use xlink:href="#DejaVuSans-30" x="63.623047"/>
       <use xlink:href="#DejaVuSans-30" x="127.246094"/>
       <use xlink:href="#DejaVuSans-30" x="190.869141"/>
      </g>
     </g>
    </g>
    <g id="xtick_6">
     <g id="line2d_6">
      <g>
       <use xlink:href="#m8e184b581f" x="558.364118" y="756" style="stroke: #000000; stroke-width: 0.8"/>
      </g>
     </g>
     <g id="text_6">
      <!-- 5000 -->
      <g transform="translate(545.639118 770.598438)scale(0.1 -0.1)">
       <defs>
        <path id="DejaVuSans-35" d="M 691 4666 
L 3169 4666 
L 3169 4134 
L 1269 4134 
L 1269 2991 
Q 1406 3038 1543 3061 
Q 1681 3084 1819 3084 
Q 2600 3084 3056 2656 
Q 3513 2228 3513 1497 
Q 3513 744 3044 326 
Q 2575 -91 1722 -91 
Q 1428 -91 1123 -41 
Q 819 9 494 109 
L 494 744 
Q 775 591 1075 516 
Q 1375 441 1709 441 
Q 2250 441 2565 725 
Q 2881 1009 2881 1497 
Q 2881 1984 2565 2268 
Q 2250 2553 1709 2553 
Q 1456 2553 1204 2497 
Q 953 2441 691 2322 
L 691 4666 
z
" transform="scale(0.015625)"/>
       </defs>
       <use xlink:href="#DejaVuSans-35"/>
       <use xlink:href="#DejaVuSans-30" x="63.623047"/>
       <use xlink:href="#DejaVuSans-30" x="127.246094"/>
       <use xlink:href="#DejaVuSans-30" x="190.869141"/>
      </g>
     </g>
    </g>
    <g id="xtick_7">
     <g id="line2d_7">
      <g>
       <use xlink:href="#m8e184b581f" x="642.349669" y="756" style="stroke: #000000; stroke-width: 0.8"/>
      </g>
     </g>
     <g id="text_7">
      <!-- 6000 -->
      <g transform="translate(629.624669 770.598438)scale(0.1 -0.1)">
       <defs>
        <path id="DejaVuSans-36" d="M 2113 2584 
Q 1688 2584 1439 2293 
Q 1191 2003 1191 1497 
Q 1191 994 1439 701 
Q 1688 409 2113 409 
Q 2538 409 2786 701 
Q 3034 994 3034 1497 
Q 3034 2003 2786 2293 
Q 2538 2584 2113 2584 
z
M 3366 4563 
L 3366 3988 
Q 3128 4100 2886 4159 
Q 2644 4219 2406 4219 
Q 1781 4219 1451 3797 
Q 1122 3375 1075 2522 
Q 1259 2794 1537 2939 
Q 1816 3084 2150 3084 
Q 2853 3084 3261 2657 
Q 3669 2231 3669 1497 
Q 3669 778 3244 343 
Q 2819 -91 2113 -91 
Q 1303 -91 875 529 
Q 447 1150 447 2328 
Q 447 3434 972 4092 
Q 1497 4750 2381 4750 
Q 2619 4750 2861 4703 
Q 3103 4656 3366 4563 
z
" transform="scale(0.015625)"/>
       </defs>
       <use xlink:href="#DejaVuSans-36"/>
       <use xlink:href="#DejaVuSans-30" x="63.623047"/>
       <use xlink:href="#DejaVuSans-30" x="127.246094"/>
       <use xlink:href="#DejaVuSans-30" x="190.869141"/>
      </g>
     </g>
    </g>
    <g id="xtick_8">
     <g id="line2d_8">
      <g>
       <use xlink:href="#m8e184b581f" x="726.33522" y="756" style="stroke: #000000; stroke-width: 0.8"/>
      </g>
     </g>
     <g id="text_8">
      <!-- 7000 -->
      <g transform="translate(713.61022 770.598438)scale(0.1 -0.1)">
       <defs>
        <path id="DejaVuSans-37" d="M 525 4666 
L 3525 4666 
L 3525 4397 
L 1831 0 
L 1172 0 
L 2766 4134 
L 525 4134 
L 525 4666 
z
" transform="scale(0.015625)"/>
       </defs>
       <use xlink:href="#DejaVuSans-37"/>
       <use xlink:href="#DejaVuSans-30" x="63.623047"/>
       <use xlink:href="#DejaVuSans-30" x="127.246094"/>
       <use xlink:href="#DejaVuSans-30" x="190.869141"/>
      </g>
     </g>
    </g>
    <g id="text_9">
     <!-- timeline -->
     <g transform="translate(422.480469 784.276562)scale(0.1 -0.1)">
      <defs>
       <path id="DejaVuSans-74" d="M 1172 4494 
L 1172 3500 
L 2356 3500 
L 2356 3053 
L 1172 3053 
L 1172 1153 
Q 1172 725 1289 603 
Q 1406 481 1766 481 
L 2356 481 
L 2356 0 
L 1766 0 
Q 1100 0 847 248 
Q 594 497 594 1153 
L 594 3053 
L 172 3053 
L 172 3500 
L 594 3500 
L 594 4494 
L 1172 4494 
z
" transform="scale(0.015625)"/>
       <path id="DejaVuSans-69" d="M 603 3500 
L 1178 3500 
L 1178 0 
L 603 0 
L 603 3500 
z
M 603 4863 
L 1178 4863 
L 1178 4134 
L 603 4134 
L 603 4863 
z
" transform="scale(0.015625)"/>
       <path id="DejaVuSans-6d" d="M 3328 2828 
Q 3544 3216 3844 3400 
Q 4144 3584 4550 3584 
Q 5097 3584 5394 3201 
Q 5691 2819 5691 2113 
L 5691 0 
L 5113 0 
L 5113 2094 
Q 5113 2597 4934 2840 
Q 4756 3084 4391 3084 
Q 3944 3084 3684 2787 
Q 3425 2491 3425 1978 
L 3425 0 
L 2847 0 
L 2847 2094 
Q 2847 2600 2669 2842 
Q 2491 3084 2119 3084 
Q 1678 3084 1418 2786 
Q 1159 2488 1159 1978 
L 1159 0 
L 581 0 
L 581 3500 
L 1159 3500 
L 1159 2956 
Q 1356 3278 1631 3431 
Q 1906 3584 2284 3584 
Q 2666 3584 2933 3390 
Q 3200 3197 3328 2828 
z
" transform="scale(0.015625)"/>
       <path id="DejaVuSans-65" d="M 3597 1894 
L 3597 1613 
L 953 1613 
Q 991 1019 1311 708 
Q 1631 397 2203 397 
Q 2534 397 2845 478 
Q 3156 559 3463 722 
L 3463 178 
Q 3153 47 2828 -22 
Q 2503 -91 2169 -91 
Q 1331 -91 842 396 
Q 353 884 353 1716 
Q 353 2575 817 3079 
Q 1281 3584 2069 3584 
Q 2775 3584 3186 3129 
Q 3597 2675 3597 1894 
z
M 3022 2063 
Q 3016 2534 2758 2815 
Q 2500 3097 2075 3097 
Q 1594 3097 1305 2825 
Q 1016 2553 972 2059 
L 3022 2063 
z
" transform="scale(0.015625)"/>
       <path id="DejaVuSans-6c" d="M 603 4863 
L 1178 4863 
L 1178 0 
L 603 0 
L 603 4863 
z
" transform="scale(0.015625)"/>
       <path id="DejaVuSans-6e" d="M 3513 2113 
L 3513 0 
L 2938 0 
L 2938 2094 
Q 2938 2591 2744 2837 
Q 2550 3084 2163 3084 
Q 1697 3084 1428 2787 
Q 1159 2491 1159 1978 
L 1159 0 
L 581 0 
L 581 3500 
L 1159 3500 
L 1159 2956 
Q 1366 3272 1645 3428 
Q 1925 3584 2291 3584 
Q 2894 3584 3203 3211 
Q 3513 2838 3513 2113 
z
" transform="scale(0.015625)"/>
      </defs>
      <use xlink:href="#DejaVuSans-74"/>
      <use xlink:href="#DejaVuSans-69" x="39.208984"/>
      <use xlink:href="#DejaVuSans-6d" x="66.992188"/>
      <use xlink:href="#DejaVuSans-65" x="164.404297"/>
      <use xlink:href="#DejaVuSans-6c" x="225.927734"/>
      <use xlink:href="#DejaVuSans-69" x="253.710938"/>
      <use xlink:href="#DejaVuSans-6e" x="281.494141"/>
      <use xlink:href="#DejaVuSans-65" x="344.873047"/>
     </g>
    </g>
   </g>
   <g id="matplotlib.axis_2">
    <g id="ytick_1">
     <g id="line2d_9">
      <defs>
       <path id="ma60f6562e5" d="M 0 0 
L -3.5 0 
" style="stroke: #000000; stroke-width: 0.8"/>
      </defs>
      <g>
       <use xlink:href="#ma60f6562e5" x="108" y="726.349091" style="stroke: #000000; stroke-width: 0.8"/>
      </g>
     </g>
     <g id="text_10">
      <!-- 0.0 -->
      <g transform="translate(85.096875 730.14831)scale(0.1 -0.1)">
       <defs>
        <path id="DejaVuSans-2e" d="M 684 794 
L 1344 794 
L 1344 0 
L 684 0 
L 684 794 
z
" transform="scale(0.015625)"/>
       </defs>
       <use xlink:href="#DejaVuSans-30"/>
       <use xlink:href="#DejaVuSans-2e" x="63.623047"/>
       <use xlink:href="#DejaVuSans-30" x="95.410156"/>
      </g>
     </g>
    </g>
    <g id="ytick_2">
     <g id="line2d_10">
      <g>
       <use xlink:href="#ma60f6562e5" x="108" y="607.745455" style="stroke: #000000; stroke-width: 0.8"/>
      </g>
     </g>
     <g id="text_11">
      <!-- 0.2 -->
      <g transform="translate(85.096875 611.544673)scale(0.1 -0.1)">
       <use xlink:href="#DejaVuSans-30"/>
       <use xlink:href="#DejaVuSans-2e" x="63.623047"/>
       <use xlink:href="#DejaVuSans-32" x="95.410156"/>
      </g>
     </g>
    </g>
    <g id="ytick_3">
     <g id="line2d_11">
      <g>
       <use xlink:href="#ma60f6562e5" x="108" y="489.141818" style="stroke: #000000; stroke-width: 0.8"/>
      </g>
     </g>
     <g id="text_12">
      <!-- 0.4 -->
      <g transform="translate(85.096875 492.941037)scale(0.1 -0.1)">
       <use xlink:href="#DejaVuSans-30"/>
       <use xlink:href="#DejaVuSans-2e" x="63.623047"/>
       <use xlink:href="#DejaVuSans-34" x="95.410156"/>
      </g>
     </g>
    </g>
    <g id="ytick_4">
     <g id="line2d_12">
      <g>
       <use xlink:href="#ma60f6562e5" x="108" y="370.538182" style="stroke: #000000; stroke-width: 0.8"/>
      </g>
     </g>
     <g id="text_13">
      <!-- 0.6 -->
      <g transform="translate(85.096875 374.337401)scale(0.1 -0.1)">
       <use xlink:href="#DejaVuSans-30"/>
       <use xlink:href="#DejaVuSans-2e" x="63.623047"/>
       <use xlink:href="#DejaVuSans-36" x="95.410156"/>
      </g>
     </g>
    </g>
    <g id="ytick_5">
     <g id="line2d_13">
      <g>
       <use xlink:href="#ma60f6562e5" x="108" y="251.934545" style="stroke: #000000; stroke-width: 0.8"/>
      </g>
     </g>
     <g id="text_14">
      <!-- 0.8 -->
      <g transform="translate(85.096875 255.733764)scale(0.1 -0.1)">
       <defs>
        <path id="DejaVuSans-38" d="M 2034 2216 
Q 1584 2216 1326 1975 
Q 1069 1734 1069 1313 
Q 1069 891 1326 650 
Q 1584 409 2034 409 
Q 2484 409 2743 651 
Q 3003 894 3003 1313 
Q 3003 1734 2745 1975 
Q 2488 2216 2034 2216 
z
M 1403 2484 
Q 997 2584 770 2862 
Q 544 3141 544 3541 
Q 544 4100 942 4425 
Q 1341 4750 2034 4750 
Q 2731 4750 3128 4425 
Q 3525 4100 3525 3541 
Q 3525 3141 3298 2862 
Q 3072 2584 2669 2484 
Q 3125 2378 3379 2068 
Q 3634 1759 3634 1313 
Q 3634 634 3220 271 
Q 2806 -91 2034 -91 
Q 1263 -91 848 271 
Q 434 634 434 1313 
Q 434 1759 690 2068 
Q 947 2378 1403 2484 
z
M 1172 3481 
Q 1172 3119 1398 2916 
Q 1625 2713 2034 2713 
Q 2441 2713 2670 2916 
Q 2900 3119 2900 3481 
Q 2900 3844 2670 4047 
Q 2441 4250 2034 4250 
Q 1625 4250 1398 4047 
Q 1172 3844 1172 3481 
z
" transform="scale(0.015625)"/>
       </defs>
       <use xlink:href="#DejaVuSans-30"/>
       <use xlink:href="#DejaVuSans-2e" x="63.623047"/>
       <use xlink:href="#DejaVuSans-38" x="95.410156"/>
      </g>
     </g>
    </g>
    <g id="ytick_6">
     <g id="line2d_14">
      <g>
       <use xlink:href="#ma60f6562e5" x="108" y="133.330909" style="stroke: #000000; stroke-width: 0.8"/>
      </g>
     </g>
     <g id="text_15">
      <!-- 1.0 -->
      <g transform="translate(85.096875 137.130128)scale(0.1 -0.1)">
       <use xlink:href="#DejaVuSans-31"/>
       <use xlink:href="#DejaVuSans-2e" x="63.623047"/>
       <use xlink:href="#DejaVuSans-30" x="95.410156"/>
      </g>
     </g>
    </g>
   </g>
   <g id="line2d_15">
    <path d="M 138.436364 133.330909 
L 141.207887 133.330909 
L 141.207887 136.281248 
L 141.627815 136.281248 
L 141.627815 139.231588 
L 152.797893 139.231588 
L 152.797893 142.289491 
L 158.340939 142.289491 
L 158.340939 145.412805 
L 160.944491 145.412805 
L 160.944491 148.570067 
L 161.53239 148.570067 
L 161.53239 151.727329 
L 165.395725 151.727329 
L 165.395725 154.884592 
L 166.655509 154.884592 
L 166.655509 158.041854 
L 166.907465 158.041854 
L 166.907465 161.199117 
L 169.511017 161.199117 
L 169.511017 164.410196 
L 170.770801 164.410196 
L 170.770801 167.621275 
L 172.786454 167.621275 
L 172.786454 170.850916 
L 173.206382 170.850916 
L 173.206382 174.080557 
L 174.382179 174.080557 
L 174.466165 180.694551 
L 175.557977 180.694551 
L 175.557977 184.001548 
L 176.81776 184.001548 
L 176.81776 187.370166 
L 177.069717 187.370166 
L 177.069717 190.759971 
L 177.405659 190.759971 
L 177.405659 194.171367 
L 178.581457 194.171367 
L 178.581457 197.672536 
L 180.429139 197.672536 
L 180.429139 201.268975 
L 190.003492 201.268975 
L 190.003492 205.403464 
L 190.927333 205.403464 
L 190.927333 209.604639 
L 191.011318 209.604639 
L 191.17929 209.604639 
L 191.17929 213.840249 
L 191.263275 213.840249 
L 193.278928 213.840249 
L 193.278928 218.220666 
L 195.294582 218.220666 
L 195.294582 222.7984 
L 196.974293 222.7984 
L 196.974293 227.504481 
L 197.39422 227.504481 
L 197.39422 232.255382 
L 199.829801 232.255382 
L 199.829801 237.246228 
L 200.333715 237.246228 
L 200.333715 242.237073 
L 205.624804 242.237073 
L 205.624804 247.556986 
L 210.24401 247.556986 
L 210.24401 253.189834 
L 210.99988 253.189834 
L 210.99988 258.822682 
L 211.419807 258.822682 
L 211.419807 264.524224 
L 215.871042 264.524224 
L 215.871042 270.521949 
L 216.45894 270.521949 
L 216.45894 276.519675 
L 218.138651 276.519675 
L 218.138651 282.681722 
L 218.390608 282.681722 
L 218.390608 288.930558 
L 221.330102 288.930558 
L 221.330102 295.179394 
L 221.414088 295.179394 
L 222.001987 295.179394 
L 222.001987 301.614763 
L 222.337929 301.614763 
L 222.337929 308.149137 
L 224.605539 308.149137 
L 224.605539 314.683511 
L 229.224744 314.683511 
L 229.224744 321.323279 
L 232.080253 321.323279 
L 232.080253 327.963046 
L 233.759964 327.963046 
L 233.759964 334.952275 
L 236.447502 334.952275 
L 236.447502 342.200364 
L 239.974895 342.200364 
L 239.974895 349.732692 
L 246.609753 349.732692 
L 246.609753 357.418741 
L 246.693739 357.418741 
L 257.779831 357.418741 
L 257.779831 366.417042 
L 263.742806 366.417042 
L 263.742806 376.700815 
L 264.330704 376.700815 
L 264.330704 386.984588 
L 264.498675 386.984588 
L 264.498675 397.268361 
L 265.758459 397.268361 
L 265.758459 407.552133 
L 267.018242 407.552133 
L 267.018242 418.178699 
L 272.813245 418.178699 
L 272.813245 428.805264 
L 274.660927 428.805264 
L 274.660927 439.431829 
L 283.311439 439.431829 
L 283.311439 450.467108 
L 288.7705 450.467108 
L 288.7705 461.962191 
L 292.129922 461.962191 
L 292.129922 473.457274 
L 321.020951 473.457274 
L 321.020951 491.520975 
L 404.586574 491.520975 
L 404.586574 550.228004 
L 555.088682 550.228004 
L 555.088682 726.349091 
L 555.088682 726.349091 
" clip-path="url(#p71f545a621)" style="fill: none; stroke: #66b3ff; stroke-width: 1.5; stroke-linecap: square"/>
   </g>
   <g id="line2d_16">
    <path d="M 138.436364 133.330909 
L 138.772306 133.330909 
L 138.772306 137.392677 
L 143.307526 137.392677 
L 143.307526 141.569673 
L 143.643468 141.569673 
L 143.643468 145.746669 
L 144.651294 145.746669 
L 144.651294 149.923665 
L 145.743107 149.923665 
L 145.743107 154.13115 
L 146.079049 154.13115 
L 146.079049 158.338635 
L 146.750933 158.338635 
L 146.750933 162.54612 
L 148.430644 162.54612 
L 148.430644 166.753604 
L 148.598615 166.753604 
L 148.598615 170.961089 
L 151.370138 170.961089 
L 151.370138 175.233305 
L 151.958037 175.233305 
L 151.958037 179.50552 
L 152.209994 179.50552 
L 152.209994 183.777735 
L 152.965864 183.777735 
L 152.965864 188.049951 
L 154.309633 188.049951 
L 154.309633 192.322166 
L 154.645575 192.322166 
L 154.645575 196.594382 
L 158.928838 196.594382 
L 158.928838 200.97252 
L 160.02065 200.97252 
L 160.02065 205.350658 
L 160.272607 205.350658 
L 160.272607 209.728796 
L 161.448405 209.728796 
L 161.448405 214.106934 
L 163.632029 214.106934 
L 163.632029 218.561214 
L 163.883986 218.561214 
L 163.883986 223.015493 
L 164.219928 223.015493 
L 164.303913 231.924053 
L 165.395725 231.924053 
L 165.395725 236.378332 
L 166.655509 236.378332 
L 166.655509 240.873477 
L 169.930945 240.873477 
L 169.930945 245.453435 
L 175.725948 245.453435 
L 175.725948 255.472095 
L 180.681096 255.472095 
L 180.681096 260.646567 
L 185.216315 260.646567 
L 185.216315 266.190645 
L 185.552258 266.190645 
L 185.552258 271.734723 
L 186.64407 271.734723 
L 186.64407 277.347246 
L 187.315954 277.347246 
L 187.315954 282.959769 
L 188.239795 282.959769 
L 188.323781 294.328726 
L 188.659723 294.328726 
L 188.659723 300.166839 
L 188.743709 300.166839 
L 189.415593 300.166839 
L 189.415593 306.169406 
L 190.843347 306.169406 
L 190.843347 312.348519 
L 194.370741 312.348519 
L 194.370741 318.817278 
L 198.15009 318.817278 
L 198.15009 325.390371 
L 202.349368 325.390371 
L 202.349368 331.963465 
L 206.212703 331.963465 
L 206.212703 339.006066 
L 213.687417 339.006066 
L 213.687417 354.499787 
L 220.406261 354.499787 
L 220.406261 362.583467 
L 226.033293 362.583467 
L 226.033293 371.043133 
L 226.28525 371.043133 
L 226.28525 379.502799 
L 236.783444 379.502799 
L 236.783444 389.137418 
L 238.715111 389.137418 
L 238.715111 399.055408 
L 240.478808 399.055408 
L 240.478808 408.973399 
L 242.158519 408.973399 
L 242.158519 418.891389 
L 244.930042 418.891389 
L 244.930042 429.139979 
L 252.404756 429.139979 
L 252.404756 439.75459 
L 254.252438 439.75459 
L 254.252438 450.369201 
L 260.551355 450.369201 
L 260.551355 461.868363 
L 275.500783 461.868363 
L 275.500783 473.890215 
L 277.264479 473.890215 
L 277.264479 485.912066 
L 308.675075 485.912066 
L 308.675075 500.05542 
L 339.413787 500.05542 
L 339.413787 517.462626 
L 358.22655 517.462626 
L 358.22655 538.351272 
L 358.478507 538.351272 
L 358.478507 559.239919 
L 363.601626 559.239919 
L 363.601626 583.112658 
L 443.723841 583.112658 
L 443.723841 583.112658 
" clip-path="url(#p71f545a621)" style="fill: none; stroke: #99ff99; stroke-width: 1.5; stroke-linecap: square"/>
   </g>
   <g id="line2d_17">
    <path d="M 138.436364 137.232344 
L 139.948104 137.232344 
L 140.032089 145.139952 
L 140.284046 145.139952 
L 140.284046 149.093755 
L 146.582962 149.093755 
L 146.582962 153.217008 
L 148.178688 153.217008 
L 148.178688 157.34026 
L 148.346659 157.34026 
L 148.346659 161.463513 
L 148.850572 161.463513 
L 148.850572 165.586765 
L 150.110355 165.586765 
L 150.110355 169.771559 
L 152.461951 169.771559 
L 152.461951 173.956352 
L 153.217821 173.956352 
L 153.217821 178.141146 
L 153.469777 178.141146 
L 153.469777 182.325939 
L 154.141662 182.325939 
L 154.141662 186.57612 
L 156.073329 186.57612 
L 156.073329 190.860032 
L 158.844852 190.860032 
L 158.928838 199.427857 
L 159.432751 199.427857 
L 159.432751 203.71177 
L 160.104636 203.71177 
L 160.104636 208.031086 
L 162.036303 208.031086 
L 162.120289 216.66972 
L 162.876159 216.66972 
L 162.876159 220.989037 
L 166.991451 220.989037 
L 166.991451 225.383472 
L 167.243408 225.383472 
L 167.243408 229.777907 
L 168.167249 229.777907 
L 168.167249 234.172342 
L 170.014931 234.172342 
L 170.014931 238.566778 
L 174.886093 238.566778 
L 174.886093 247.684204 
L 174.970078 247.684204 
L 177.741601 247.684204 
L 177.825587 262.044151 
L 179.421312 262.044151 
L 179.421312 266.931571 
L 184.628417 266.931571 
L 184.628417 272.03621 
L 187.651896 272.03621 
L 187.651896 277.444697 
L 191.011318 277.444697 
L 191.011318 283.430089 
L 193.530885 283.430089 
L 193.530885 289.668385 
L 196.722336 289.668385 
L 196.722336 296.186007 
L 197.310235 296.186007 
L 197.310235 302.70363 
L 198.821975 302.70363 
L 198.821975 309.428161 
L 202.265382 309.428161 
L 202.265382 316.494617 
L 203.693137 316.494617 
L 203.693137 323.685046 
L 206.296689 323.685046 
L 206.296689 331.282481 
L 207.808429 331.282481 
L 207.808429 339.183813 
L 207.892414 339.183813 
L 212.259663 339.183813 
L 212.259663 347.60045 
L 214.443287 347.60045 
L 214.443287 356.618275 
L 218.222637 356.618275 
L 218.222637 366.098552 
L 222.001987 366.098552 
L 222.001987 375.835053 
L 228.55286 375.835053 
L 228.55286 385.84974 
L 234.76779 385.84974 
L 234.76779 397.199718 
L 238.967068 397.199718 
L 238.967068 408.955053 
L 241.654606 408.955053 
L 241.654606 420.710388 
L 244.090187 420.710388 
L 244.090187 433.445334 
L 244.678085 433.445334 
L 244.678085 446.18028 
L 247.029681 446.18028 
L 247.029681 460.18872 
L 264.246719 460.18872 
L 264.246719 474.975407 
L 266.766285 474.975407 
L 266.766285 489.762095 
L 287.762673 489.762095 
L 287.762673 507.961094 
L 289.442384 507.961094 
L 289.442384 526.160094 
L 333.114871 526.160094 
L 333.114871 546.178994 
L 420.7118 546.178994 
L 420.7118 568.700256 
L 747.163636 568.700256 
L 747.163636 568.700256 
" clip-path="url(#p71f545a621)" style="fill: none; stroke: #ffcc99; stroke-width: 1.5; stroke-linecap: square"/>
   </g>
   <g id="patch_3">
    <path d="M 108 756 
L 108 103.68 
" style="fill: none; stroke: #000000; stroke-width: 0.8; stroke-linejoin: miter; stroke-linecap: square"/>
   </g>
   <g id="patch_4">
    <path d="M 777.6 756 
L 777.6 103.68 
" style="fill: none; stroke: #000000; stroke-width: 0.8; stroke-linejoin: miter; stroke-linecap: square"/>
   </g>
   <g id="patch_5">
    <path d="M 108 756 
L 777.6 756 
" style="fill: none; stroke: #000000; stroke-width: 0.8; stroke-linejoin: miter; stroke-linecap: square"/>
   </g>
   <g id="patch_6">
    <path d="M 108 103.68 
L 777.6 103.68 
" style="fill: none; stroke: #000000; stroke-width: 0.8; stroke-linejoin: miter; stroke-linecap: square"/>
   </g>
   <g id="legend_1">
    <g id="patch_7">
     <path d="M 693.567188 155.714375 
L 770.6 155.714375 
Q 772.6 155.714375 772.6 153.714375 
L 772.6 110.68 
Q 772.6 108.68 770.6 108.68 
L 693.567188 108.68 
Q 691.567188 108.68 691.567188 110.68 
L 691.567188 153.714375 
Q 691.567188 155.714375 693.567188 155.714375 
z
" style="fill: #ffffff; opacity: 0.8; stroke: #cccccc; stroke-linejoin: miter"/>
    </g>
    <g id="line2d_18">
     <path d="M 695.567188 116.778437 
L 705.567188 116.778437 
L 705.567188 116.778437 
L 715.567188 116.778437 
L 715.567188 116.778437 
" style="fill: none; stroke: #66b3ff; stroke-width: 1.5; stroke-linecap: square"/>
    </g>
    <g id="text_16">
     <!-- Cluster 0 -->
     <g transform="translate(723.567188 120.278437)scale(0.1 -0.1)">
      <defs>
       <path id="DejaVuSans-43" d="M 4122 4306 
L 4122 3641 
Q 3803 3938 3442 4084 
Q 3081 4231 2675 4231 
Q 1875 4231 1450 3742 
Q 1025 3253 1025 2328 
Q 1025 1406 1450 917 
Q 1875 428 2675 428 
Q 3081 428 3442 575 
Q 3803 722 4122 1019 
L 4122 359 
Q 3791 134 3420 21 
Q 3050 -91 2638 -91 
Q 1578 -91 968 557 
Q 359 1206 359 2328 
Q 359 3453 968 4101 
Q 1578 4750 2638 4750 
Q 3056 4750 3426 4639 
Q 3797 4528 4122 4306 
z
" transform="scale(0.015625)"/>
       <path id="DejaVuSans-75" d="M 544 1381 
L 544 3500 
L 1119 3500 
L 1119 1403 
Q 1119 906 1312 657 
Q 1506 409 1894 409 
Q 2359 409 2629 706 
Q 2900 1003 2900 1516 
L 2900 3500 
L 3475 3500 
L 3475 0 
L 2900 0 
L 2900 538 
Q 2691 219 2414 64 
Q 2138 -91 1772 -91 
Q 1169 -91 856 284 
Q 544 659 544 1381 
z
M 1991 3584 
L 1991 3584 
z
" transform="scale(0.015625)"/>
       <path id="DejaVuSans-73" d="M 2834 3397 
L 2834 2853 
Q 2591 2978 2328 3040 
Q 2066 3103 1784 3103 
Q 1356 3103 1142 2972 
Q 928 2841 928 2578 
Q 928 2378 1081 2264 
Q 1234 2150 1697 2047 
L 1894 2003 
Q 2506 1872 2764 1633 
Q 3022 1394 3022 966 
Q 3022 478 2636 193 
Q 2250 -91 1575 -91 
Q 1294 -91 989 -36 
Q 684 19 347 128 
L 347 722 
Q 666 556 975 473 
Q 1284 391 1588 391 
Q 1994 391 2212 530 
Q 2431 669 2431 922 
Q 2431 1156 2273 1281 
Q 2116 1406 1581 1522 
L 1381 1569 
Q 847 1681 609 1914 
Q 372 2147 372 2553 
Q 372 3047 722 3315 
Q 1072 3584 1716 3584 
Q 2034 3584 2315 3537 
Q 2597 3491 2834 3397 
z
" transform="scale(0.015625)"/>
       <path id="DejaVuSans-72" d="M 2631 2963 
Q 2534 3019 2420 3045 
Q 2306 3072 2169 3072 
Q 1681 3072 1420 2755 
Q 1159 2438 1159 1844 
L 1159 0 
L 581 0 
L 581 3500 
L 1159 3500 
L 1159 2956 
Q 1341 3275 1631 3429 
Q 1922 3584 2338 3584 
Q 2397 3584 2469 3576 
Q 2541 3569 2628 3553 
L 2631 2963 
z
" transform="scale(0.015625)"/>
       <path id="DejaVuSans-20" transform="scale(0.015625)"/>
      </defs>
      <use xlink:href="#DejaVuSans-43"/>
      <use xlink:href="#DejaVuSans-6c" x="69.824219"/>
      <use xlink:href="#DejaVuSans-75" x="97.607422"/>
      <use xlink:href="#DejaVuSans-73" x="160.986328"/>
      <use xlink:href="#DejaVuSans-74" x="213.085938"/>
      <use xlink:href="#DejaVuSans-65" x="252.294922"/>
      <use xlink:href="#DejaVuSans-72" x="313.818359"/>
      <use xlink:href="#DejaVuSans-20" x="354.931641"/>
      <use xlink:href="#DejaVuSans-30" x="386.71875"/>
     </g>
    </g>
    <g id="line2d_19">
     <path d="M 695.567188 131.456562 
L 705.567188 131.456562 
L 705.567188 131.456562 
L 715.567188 131.456562 
L 715.567188 131.456562 
" style="fill: none; stroke: #99ff99; stroke-width: 1.5; stroke-linecap: square"/>
    </g>
    <g id="text_17">
     <!-- Cluster 1 -->
     <g transform="translate(723.567188 134.956562)scale(0.1 -0.1)">
      <use xlink:href="#DejaVuSans-43"/>
      <use xlink:href="#DejaVuSans-6c" x="69.824219"/>
      <use xlink:href="#DejaVuSans-75" x="97.607422"/>
      <use xlink:href="#DejaVuSans-73" x="160.986328"/>
      <use xlink:href="#DejaVuSans-74" x="213.085938"/>
      <use xlink:href="#DejaVuSans-65" x="252.294922"/>
      <use xlink:href="#DejaVuSans-72" x="313.818359"/>
      <use xlink:href="#DejaVuSans-20" x="354.931641"/>
      <use xlink:href="#DejaVuSans-31" x="386.71875"/>
     </g>
    </g>
    <g id="line2d_20">
     <path d="M 695.567188 146.134687 
L 705.567188 146.134687 
L 705.567188 146.134687 
L 715.567188 146.134687 
L 715.567188 146.134687 
" style="fill: none; stroke: #ffcc99; stroke-width: 1.5; stroke-linecap: square"/>
    </g>
    <g id="text_18">
     <!-- Cluster 2 -->
     <g transform="translate(723.567188 149.634687)scale(0.1 -0.1)">
      <use xlink:href="#DejaVuSans-43"/>
      <use xlink:href="#DejaVuSans-6c" x="69.824219"/>
      <use xlink:href="#DejaVuSans-75" x="97.607422"/>
      <use xlink:href="#DejaVuSans-73" x="160.986328"/>
      <use xlink:href="#DejaVuSans-74" x="213.085938"/>
      <use xlink:href="#DejaVuSans-65" x="252.294922"/>
      <use xlink:href="#DejaVuSans-72" x="313.818359"/>
      <use xlink:href="#DejaVuSans-20" x="354.931641"/>
      <use xlink:href="#DejaVuSans-32" x="386.71875"/>
     </g>
    </g>
   </g>
  </g>
  <g id="axes_2">
   <g id="matplotlib.axis_3">
    <g id="xtick_9">
     <g id="text_19">
      <!-- Cluster 0 -->
      <g transform="translate(93.403551 813.798437)scale(0.1 -0.1)">
       <use xlink:href="#DejaVuSans-43"/>
       <use xlink:href="#DejaVuSans-6c" x="69.824219"/>
       <use xlink:href="#DejaVuSans-75" x="97.607422"/>
       <use xlink:href="#DejaVuSans-73" x="160.986328"/>
       <use xlink:href="#DejaVuSans-74" x="213.085938"/>
       <use xlink:href="#DejaVuSans-65" x="252.294922"/>
       <use xlink:href="#DejaVuSans-72" x="313.818359"/>
       <use xlink:href="#DejaVuSans-20" x="354.931641"/>
       <use xlink:href="#DejaVuSans-30" x="386.71875"/>
      </g>
      <!--    At risk   204 -->
      <g transform="translate(68.626989 824.99625)scale(0.1 -0.1)">
       <defs>
        <path id="DejaVuSans-41" d="M 2188 4044 
L 1331 1722 
L 3047 1722 
L 2188 4044 
z
M 1831 4666 
L 2547 4666 
L 4325 0 
L 3669 0 
L 3244 1197 
L 1141 1197 
L 716 0 
L 50 0 
L 1831 4666 
z
" transform="scale(0.015625)"/>
        <path id="DejaVuSans-6b" d="M 581 4863 
L 1159 4863 
L 1159 1991 
L 2875 3500 
L 3609 3500 
L 1753 1863 
L 3688 0 
L 2938 0 
L 1159 1709 
L 1159 0 
L 581 0 
L 581 4863 
z
" transform="scale(0.015625)"/>
       </defs>
       <use xlink:href="#DejaVuSans-20"/>
       <use xlink:href="#DejaVuSans-20" x="31.787109"/>
       <use xlink:href="#DejaVuSans-20" x="63.574219"/>
       <use xlink:href="#DejaVuSans-41" x="95.361328"/>
       <use xlink:href="#DejaVuSans-74" x="162.019531"/>
       <use xlink:href="#DejaVuSans-20" x="201.228516"/>
       <use xlink:href="#DejaVuSans-72" x="233.015625"/>
       <use xlink:href="#DejaVuSans-69" x="274.128906"/>
       <use xlink:href="#DejaVuSans-73" x="301.912109"/>
       <use xlink:href="#DejaVuSans-6b" x="354.011719"/>
       <use xlink:href="#DejaVuSans-20" x="411.921875"/>
       <use xlink:href="#DejaVuSans-20" x="443.708984"/>
       <use xlink:href="#DejaVuSans-20" x="475.496094"/>
       <use xlink:href="#DejaVuSans-32" x="507.283203"/>
       <use xlink:href="#DejaVuSans-30" x="570.90625"/>
       <use xlink:href="#DejaVuSans-34" x="634.529297"/>
      </g>
      <!--   Censored       0 -->
      <g transform="translate(56.281676 836.194062)scale(0.1 -0.1)">
       <defs>
        <path id="DejaVuSans-6f" d="M 1959 3097 
Q 1497 3097 1228 2736 
Q 959 2375 959 1747 
Q 959 1119 1226 758 
Q 1494 397 1959 397 
Q 2419 397 2687 759 
Q 2956 1122 2956 1747 
Q 2956 2369 2687 2733 
Q 2419 3097 1959 3097 
z
M 1959 3584 
Q 2709 3584 3137 3096 
Q 3566 2609 3566 1747 
Q 3566 888 3137 398 
Q 2709 -91 1959 -91 
Q 1206 -91 779 398 
Q 353 888 353 1747 
Q 353 2609 779 3096 
Q 1206 3584 1959 3584 
z
" transform="scale(0.015625)"/>
        <path id="DejaVuSans-64" d="M 2906 2969 
L 2906 4863 
L 3481 4863 
L 3481 0 
L 2906 0 
L 2906 525 
Q 2725 213 2448 61 
Q 2172 -91 1784 -91 
Q 1150 -91 751 415 
Q 353 922 353 1747 
Q 353 2572 751 3078 
Q 1150 3584 1784 3584 
Q 2172 3584 2448 3432 
Q 2725 3281 2906 2969 
z
M 947 1747 
Q 947 1113 1208 752 
Q 1469 391 1925 391 
Q 2381 391 2643 752 
Q 2906 1113 2906 1747 
Q 2906 2381 2643 2742 
Q 2381 3103 1925 3103 
Q 1469 3103 1208 2742 
Q 947 2381 947 1747 
z
" transform="scale(0.015625)"/>
       </defs>
       <use xlink:href="#DejaVuSans-20"/>
       <use xlink:href="#DejaVuSans-20" x="31.787109"/>
       <use xlink:href="#DejaVuSans-43" x="63.574219"/>
       <use xlink:href="#DejaVuSans-65" x="133.398438"/>
       <use xlink:href="#DejaVuSans-6e" x="194.921875"/>
       <use xlink:href="#DejaVuSans-73" x="258.300781"/>
       <use xlink:href="#DejaVuSans-6f" x="310.400391"/>
       <use xlink:href="#DejaVuSans-72" x="371.582031"/>
       <use xlink:href="#DejaVuSans-65" x="410.445312"/>
       <use xlink:href="#DejaVuSans-64" x="471.96875"/>
       <use xlink:href="#DejaVuSans-20" x="535.445312"/>
       <use xlink:href="#DejaVuSans-20" x="567.232422"/>
       <use xlink:href="#DejaVuSans-20" x="599.019531"/>
       <use xlink:href="#DejaVuSans-20" x="630.806641"/>
       <use xlink:href="#DejaVuSans-20" x="662.59375"/>
       <use xlink:href="#DejaVuSans-20" x="694.380859"/>
       <use xlink:href="#DejaVuSans-20" x="726.167969"/>
       <use xlink:href="#DejaVuSans-30" x="757.955078"/>
      </g>
      <!--     Events       0 -->
      <g transform="translate(63.256676 847.391875)scale(0.1 -0.1)">
       <defs>
        <path id="DejaVuSans-45" d="M 628 4666 
L 3578 4666 
L 3578 4134 
L 1259 4134 
L 1259 2753 
L 3481 2753 
L 3481 2222 
L 1259 2222 
L 1259 531 
L 3634 531 
L 3634 0 
L 628 0 
L 628 4666 
z
" transform="scale(0.015625)"/>
        <path id="DejaVuSans-76" d="M 191 3500 
L 800 3500 
L 1894 563 
L 2988 3500 
L 3597 3500 
L 2284 0 
L 1503 0 
L 191 3500 
z
" transform="scale(0.015625)"/>
       </defs>
       <use xlink:href="#DejaVuSans-20"/>
       <use xlink:href="#DejaVuSans-20" x="31.787109"/>
       <use xlink:href="#DejaVuSans-20" x="63.574219"/>
       <use xlink:href="#DejaVuSans-20" x="95.361328"/>
       <use xlink:href="#DejaVuSans-45" x="127.148438"/>
       <use xlink:href="#DejaVuSans-76" x="190.332031"/>
       <use xlink:href="#DejaVuSans-65" x="249.511719"/>
       <use xlink:href="#DejaVuSans-6e" x="311.035156"/>
       <use xlink:href="#DejaVuSans-74" x="374.414062"/>
       <use xlink:href="#DejaVuSans-73" x="413.623047"/>
       <use xlink:href="#DejaVuSans-20" x="465.722656"/>
       <use xlink:href="#DejaVuSans-20" x="497.509766"/>
       <use xlink:href="#DejaVuSans-20" x="529.296875"/>
       <use xlink:href="#DejaVuSans-20" x="561.083984"/>
       <use xlink:href="#DejaVuSans-20" x="592.871094"/>
       <use xlink:href="#DejaVuSans-20" x="624.658203"/>
       <use xlink:href="#DejaVuSans-20" x="656.445312"/>
       <use xlink:href="#DejaVuSans-30" x="688.232422"/>
      </g>
      <!--  -->
      <g transform="translate(138.436364 858.589687)scale(0.1 -0.1)"/>
      <!-- Cluster 1 -->
      <g transform="translate(93.403551 869.7875)scale(0.1 -0.1)">
       <use xlink:href="#DejaVuSans-43"/>
       <use xlink:href="#DejaVuSans-6c" x="69.824219"/>
       <use xlink:href="#DejaVuSans-75" x="97.607422"/>
       <use xlink:href="#DejaVuSans-73" x="160.986328"/>
       <use xlink:href="#DejaVuSans-74" x="213.085938"/>
       <use xlink:href="#DejaVuSans-65" x="252.294922"/>
       <use xlink:href="#DejaVuSans-72" x="313.818359"/>
       <use xlink:href="#DejaVuSans-20" x="354.931641"/>
       <use xlink:href="#DejaVuSans-31" x="386.71875"/>
      </g>
      <!--    At risk   146 -->
      <g transform="translate(68.626989 880.985312)scale(0.1 -0.1)">
       <use xlink:href="#DejaVuSans-20"/>
       <use xlink:href="#DejaVuSans-20" x="31.787109"/>
       <use xlink:href="#DejaVuSans-20" x="63.574219"/>
       <use xlink:href="#DejaVuSans-41" x="95.361328"/>
       <use xlink:href="#DejaVuSans-74" x="162.019531"/>
       <use xlink:href="#DejaVuSans-20" x="201.228516"/>
       <use xlink:href="#DejaVuSans-72" x="233.015625"/>
       <use xlink:href="#DejaVuSans-69" x="274.128906"/>
       <use xlink:href="#DejaVuSans-73" x="301.912109"/>
       <use xlink:href="#DejaVuSans-6b" x="354.011719"/>
       <use xlink:href="#DejaVuSans-20" x="411.921875"/>
       <use xlink:href="#DejaVuSans-20" x="443.708984"/>
       <use xlink:href="#DejaVuSans-20" x="475.496094"/>
       <use xlink:href="#DejaVuSans-31" x="507.283203"/>
       <use xlink:href="#DejaVuSans-34" x="570.90625"/>
       <use xlink:href="#DejaVuSans-36" x="634.529297"/>
      </g>
      <!--   Censored       2 -->
      <g transform="translate(56.281676 892.183125)scale(0.1 -0.1)">
       <use xlink:href="#DejaVuSans-20"/>
       <use xlink:href="#DejaVuSans-20" x="31.787109"/>
       <use xlink:href="#DejaVuSans-43" x="63.574219"/>
       <use xlink:href="#DejaVuSans-65" x="133.398438"/>
       <use xlink:href="#DejaVuSans-6e" x="194.921875"/>
       <use xlink:href="#DejaVuSans-73" x="258.300781"/>
       <use xlink:href="#DejaVuSans-6f" x="310.400391"/>
       <use xlink:href="#DejaVuSans-72" x="371.582031"/>
       <use xlink:href="#DejaVuSans-65" x="410.445312"/>
       <use xlink:href="#DejaVuSans-64" x="471.96875"/>
       <use xlink:href="#DejaVuSans-20" x="535.445312"/>
       <use xlink:href="#DejaVuSans-20" x="567.232422"/>
       <use xlink:href="#DejaVuSans-20" x="599.019531"/>
       <use xlink:href="#DejaVuSans-20" x="630.806641"/>
       <use xlink:href="#DejaVuSans-20" x="662.59375"/>
       <use xlink:href="#DejaVuSans-20" x="694.380859"/>
       <use xlink:href="#DejaVuSans-20" x="726.167969"/>
       <use xlink:href="#DejaVuSans-32" x="757.955078"/>
      </g>
      <!--     Events       0 -->
      <g transform="translate(63.256676 903.380938)scale(0.1 -0.1)">
       <use xlink:href="#DejaVuSans-20"/>
       <use xlink:href="#DejaVuSans-20" x="31.787109"/>
       <use xlink:href="#DejaVuSans-20" x="63.574219"/>
       <use xlink:href="#DejaVuSans-20" x="95.361328"/>
       <use xlink:href="#DejaVuSans-45" x="127.148438"/>
       <use xlink:href="#DejaVuSans-76" x="190.332031"/>
       <use xlink:href="#DejaVuSans-65" x="249.511719"/>
       <use xlink:href="#DejaVuSans-6e" x="311.035156"/>
       <use xlink:href="#DejaVuSans-74" x="374.414062"/>
       <use xlink:href="#DejaVuSans-73" x="413.623047"/>
       <use xlink:href="#DejaVuSans-20" x="465.722656"/>
       <use xlink:href="#DejaVuSans-20" x="497.509766"/>
       <use xlink:href="#DejaVuSans-20" x="529.296875"/>
       <use xlink:href="#DejaVuSans-20" x="561.083984"/>
       <use xlink:href="#DejaVuSans-20" x="592.871094"/>
       <use xlink:href="#DejaVuSans-20" x="624.658203"/>
       <use xlink:href="#DejaVuSans-20" x="656.445312"/>
       <use xlink:href="#DejaVuSans-30" x="688.232422"/>
      </g>
      <!--  -->
      <g transform="translate(138.436364 914.57875)scale(0.1 -0.1)"/>
      <!-- Cluster 2 -->
      <g transform="translate(93.403551 925.776563)scale(0.1 -0.1)">
       <use xlink:href="#DejaVuSans-43"/>
       <use xlink:href="#DejaVuSans-6c" x="69.824219"/>
       <use xlink:href="#DejaVuSans-75" x="97.607422"/>
       <use xlink:href="#DejaVuSans-73" x="160.986328"/>
       <use xlink:href="#DejaVuSans-74" x="213.085938"/>
       <use xlink:href="#DejaVuSans-65" x="252.294922"/>
       <use xlink:href="#DejaVuSans-72" x="313.818359"/>
       <use xlink:href="#DejaVuSans-20" x="354.931641"/>
       <use xlink:href="#DejaVuSans-32" x="386.71875"/>
      </g>
      <!--    At risk   150 -->
      <g transform="translate(68.626989 936.974375)scale(0.1 -0.1)">
       <use xlink:href="#DejaVuSans-20"/>
       <use xlink:href="#DejaVuSans-20" x="31.787109"/>
       <use xlink:href="#DejaVuSans-20" x="63.574219"/>
       <use xlink:href="#DejaVuSans-41" x="95.361328"/>
       <use xlink:href="#DejaVuSans-74" x="162.019531"/>
       <use xlink:href="#DejaVuSans-20" x="201.228516"/>
       <use xlink:href="#DejaVuSans-72" x="233.015625"/>
       <use xlink:href="#DejaVuSans-69" x="274.128906"/>
       <use xlink:href="#DejaVuSans-73" x="301.912109"/>
       <use xlink:href="#DejaVuSans-6b" x="354.011719"/>
       <use xlink:href="#DejaVuSans-20" x="411.921875"/>
       <use xlink:href="#DejaVuSans-20" x="443.708984"/>
       <use xlink:href="#DejaVuSans-20" x="475.496094"/>
       <use xlink:href="#DejaVuSans-31" x="507.283203"/>
       <use xlink:href="#DejaVuSans-35" x="570.90625"/>
       <use xlink:href="#DejaVuSans-30" x="634.529297"/>
      </g>
      <!--   Censored       1 -->
      <g transform="translate(56.281676 948.172188)scale(0.1 -0.1)">
       <use xlink:href="#DejaVuSans-20"/>
       <use xlink:href="#DejaVuSans-20" x="31.787109"/>
       <use xlink:href="#DejaVuSans-43" x="63.574219"/>
       <use xlink:href="#DejaVuSans-65" x="133.398438"/>
       <use xlink:href="#DejaVuSans-6e" x="194.921875"/>
       <use xlink:href="#DejaVuSans-73" x="258.300781"/>
       <use xlink:href="#DejaVuSans-6f" x="310.400391"/>
       <use xlink:href="#DejaVuSans-72" x="371.582031"/>
       <use xlink:href="#DejaVuSans-65" x="410.445312"/>
       <use xlink:href="#DejaVuSans-64" x="471.96875"/>
       <use xlink:href="#DejaVuSans-20" x="535.445312"/>
       <use xlink:href="#DejaVuSans-20" x="567.232422"/>
       <use xlink:href="#DejaVuSans-20" x="599.019531"/>
       <use xlink:href="#DejaVuSans-20" x="630.806641"/>
       <use xlink:href="#DejaVuSans-20" x="662.59375"/>
       <use xlink:href="#DejaVuSans-20" x="694.380859"/>
       <use xlink:href="#DejaVuSans-20" x="726.167969"/>
       <use xlink:href="#DejaVuSans-31" x="757.955078"/>
      </g>
      <!--     Events       1 -->
      <g transform="translate(63.256676 959.37)scale(0.1 -0.1)">
       <use xlink:href="#DejaVuSans-20"/>
       <use xlink:href="#DejaVuSans-20" x="31.787109"/>
       <use xlink:href="#DejaVuSans-20" x="63.574219"/>
       <use xlink:href="#DejaVuSans-20" x="95.361328"/>
       <use xlink:href="#DejaVuSans-45" x="127.148438"/>
       <use xlink:href="#DejaVuSans-76" x="190.332031"/>
       <use xlink:href="#DejaVuSans-65" x="249.511719"/>
       <use xlink:href="#DejaVuSans-6e" x="311.035156"/>
       <use xlink:href="#DejaVuSans-74" x="374.414062"/>
       <use xlink:href="#DejaVuSans-73" x="413.623047"/>
       <use xlink:href="#DejaVuSans-20" x="465.722656"/>
       <use xlink:href="#DejaVuSans-20" x="497.509766"/>
       <use xlink:href="#DejaVuSans-20" x="529.296875"/>
       <use xlink:href="#DejaVuSans-20" x="561.083984"/>
       <use xlink:href="#DejaVuSans-20" x="592.871094"/>
       <use xlink:href="#DejaVuSans-20" x="624.658203"/>
       <use xlink:href="#DejaVuSans-20" x="656.445312"/>
       <use xlink:href="#DejaVuSans-31" x="688.232422"/>
      </g>
      <!--  -->
      <g transform="translate(138.436364 970.567813)scale(0.1 -0.1)"/>
     </g>
    </g>
    <g id="xtick_10">
     <g id="text_20">
      <!--  -->
      <g transform="translate(222.421915 813.798437)scale(0.1 -0.1)"/>
      <!-- 64 -->
      <g transform="translate(209.696915 824.99625)scale(0.1 -0.1)">
       <use xlink:href="#DejaVuSans-36"/>
       <use xlink:href="#DejaVuSans-34" x="63.623047"/>
      </g>
      <!-- 99 -->
      <g transform="translate(209.696915 836.194062)scale(0.1 -0.1)">
       <defs>
        <path id="DejaVuSans-39" d="M 703 97 
L 703 672 
Q 941 559 1184 500 
Q 1428 441 1663 441 
Q 2288 441 2617 861 
Q 2947 1281 2994 2138 
Q 2813 1869 2534 1725 
Q 2256 1581 1919 1581 
Q 1219 1581 811 2004 
Q 403 2428 403 3163 
Q 403 3881 828 4315 
Q 1253 4750 1959 4750 
Q 2769 4750 3195 4129 
Q 3622 3509 3622 2328 
Q 3622 1225 3098 567 
Q 2575 -91 1691 -91 
Q 1453 -91 1209 -44 
Q 966 3 703 97 
z
M 1959 2075 
Q 2384 2075 2632 2365 
Q 2881 2656 2881 3163 
Q 2881 3666 2632 3958 
Q 2384 4250 1959 4250 
Q 1534 4250 1286 3958 
Q 1038 3666 1038 3163 
Q 1038 2656 1286 2365 
Q 1534 2075 1959 2075 
z
" transform="scale(0.015625)"/>
       </defs>
       <use xlink:href="#DejaVuSans-39"/>
       <use xlink:href="#DejaVuSans-39" x="63.623047"/>
      </g>
      <!-- 41 -->
      <g transform="translate(209.696915 847.391875)scale(0.1 -0.1)">
       <use xlink:href="#DejaVuSans-34"/>
       <use xlink:href="#DejaVuSans-31" x="63.623047"/>
      </g>
      <!--  -->
      <g transform="translate(222.421915 858.589687)scale(0.1 -0.1)"/>
      <!--  -->
      <g transform="translate(222.421915 869.7875)scale(0.1 -0.1)"/>
      <!-- 45 -->
      <g transform="translate(209.696915 880.985312)scale(0.1 -0.1)">
       <use xlink:href="#DejaVuSans-34"/>
       <use xlink:href="#DejaVuSans-35" x="63.623047"/>
      </g>
      <!-- 58 -->
      <g transform="translate(209.696915 892.183125)scale(0.1 -0.1)">
       <use xlink:href="#DejaVuSans-35"/>
       <use xlink:href="#DejaVuSans-38" x="63.623047"/>
      </g>
      <!-- 45 -->
      <g transform="translate(209.696915 903.380938)scale(0.1 -0.1)">
       <use xlink:href="#DejaVuSans-34"/>
       <use xlink:href="#DejaVuSans-35" x="63.623047"/>
      </g>
      <!--  -->
      <g transform="translate(222.421915 914.57875)scale(0.1 -0.1)"/>
      <!--  -->
      <g transform="translate(222.421915 925.776563)scale(0.1 -0.1)"/>
      <!-- 36 -->
      <g transform="translate(209.696915 936.974375)scale(0.1 -0.1)">
       <use xlink:href="#DejaVuSans-33"/>
       <use xlink:href="#DejaVuSans-36" x="63.623047"/>
      </g>
      <!-- 70 -->
      <g transform="translate(209.696915 948.172188)scale(0.1 -0.1)">
       <use xlink:href="#DejaVuSans-37"/>
       <use xlink:href="#DejaVuSans-30" x="63.623047"/>
      </g>
      <!-- 46 -->
      <g transform="translate(209.696915 959.37)scale(0.1 -0.1)">
       <use xlink:href="#DejaVuSans-34"/>
       <use xlink:href="#DejaVuSans-36" x="63.623047"/>
      </g>
     </g>
    </g>
    <g id="xtick_11">
     <g id="text_21">
      <!--  -->
      <g transform="translate(306.407465 813.798437)scale(0.1 -0.1)"/>
      <!-- 18 -->
      <g transform="translate(293.682465 824.99625)scale(0.1 -0.1)">
       <use xlink:href="#DejaVuSans-31"/>
       <use xlink:href="#DejaVuSans-38" x="63.623047"/>
      </g>
      <!-- 127 -->
      <g transform="translate(287.319965 836.194062)scale(0.1 -0.1)">
       <use xlink:href="#DejaVuSans-31"/>
       <use xlink:href="#DejaVuSans-32" x="63.623047"/>
       <use xlink:href="#DejaVuSans-37" x="127.246094"/>
      </g>
      <!-- 59 -->
      <g transform="translate(293.682465 847.391875)scale(0.1 -0.1)">
       <use xlink:href="#DejaVuSans-35"/>
       <use xlink:href="#DejaVuSans-39" x="63.623047"/>
      </g>
      <!--  -->
      <g transform="translate(306.407465 858.589687)scale(0.1 -0.1)"/>
      <!--  -->
      <g transform="translate(306.407465 869.7875)scale(0.1 -0.1)"/>
      <!-- 17 -->
      <g transform="translate(293.682465 880.985312)scale(0.1 -0.1)">
       <use xlink:href="#DejaVuSans-31"/>
       <use xlink:href="#DejaVuSans-37" x="63.623047"/>
      </g>
      <!-- 74 -->
      <g transform="translate(293.682465 892.183125)scale(0.1 -0.1)">
       <use xlink:href="#DejaVuSans-37"/>
       <use xlink:href="#DejaVuSans-34" x="63.623047"/>
      </g>
      <!-- 57 -->
      <g transform="translate(293.682465 903.380938)scale(0.1 -0.1)">
       <use xlink:href="#DejaVuSans-35"/>
       <use xlink:href="#DejaVuSans-37" x="63.623047"/>
      </g>
      <!--  -->
      <g transform="translate(306.407465 914.57875)scale(0.1 -0.1)"/>
      <!--  -->
      <g transform="translate(306.407465 925.776563)scale(0.1 -0.1)"/>
      <!-- 10 -->
      <g transform="translate(293.682465 936.974375)scale(0.1 -0.1)">
       <use xlink:href="#DejaVuSans-31"/>
       <use xlink:href="#DejaVuSans-30" x="63.623047"/>
      </g>
      <!-- 85 -->
      <g transform="translate(293.682465 948.172188)scale(0.1 -0.1)">
       <use xlink:href="#DejaVuSans-38"/>
       <use xlink:href="#DejaVuSans-35" x="63.623047"/>
      </g>
      <!-- 57 -->
      <g transform="translate(293.682465 959.37)scale(0.1 -0.1)">
       <use xlink:href="#DejaVuSans-35"/>
       <use xlink:href="#DejaVuSans-37" x="63.623047"/>
      </g>
     </g>
    </g>
    <g id="xtick_12">
     <g id="text_22">
      <!--  -->
      <g transform="translate(390.393016 813.798437)scale(0.1 -0.1)"/>
      <!-- 5 -->
      <g transform="translate(384.030516 824.99625)scale(0.1 -0.1)">
       <use xlink:href="#DejaVuSans-35"/>
      </g>
      <!-- 139 -->
      <g transform="translate(371.305516 836.194062)scale(0.1 -0.1)">
       <use xlink:href="#DejaVuSans-31"/>
       <use xlink:href="#DejaVuSans-33" x="63.623047"/>
       <use xlink:href="#DejaVuSans-39" x="127.246094"/>
      </g>
      <!-- 60 -->
      <g transform="translate(377.668016 847.391875)scale(0.1 -0.1)">
       <use xlink:href="#DejaVuSans-36"/>
       <use xlink:href="#DejaVuSans-30" x="63.623047"/>
      </g>
      <!--  -->
      <g transform="translate(390.393016 858.589687)scale(0.1 -0.1)"/>
      <!--  -->
      <g transform="translate(390.393016 869.7875)scale(0.1 -0.1)"/>
      <!-- 3 -->
      <g transform="translate(384.030516 880.985312)scale(0.1 -0.1)">
       <use xlink:href="#DejaVuSans-33"/>
      </g>
      <!-- 83 -->
      <g transform="translate(377.668016 892.183125)scale(0.1 -0.1)">
       <use xlink:href="#DejaVuSans-38"/>
       <use xlink:href="#DejaVuSans-33" x="63.623047"/>
      </g>
      <!-- 62 -->
      <g transform="translate(377.668016 903.380938)scale(0.1 -0.1)">
       <use xlink:href="#DejaVuSans-36"/>
       <use xlink:href="#DejaVuSans-32" x="63.623047"/>
      </g>
      <!--  -->
      <g transform="translate(390.393016 914.57875)scale(0.1 -0.1)"/>
      <!--  -->
      <g transform="translate(390.393016 925.776563)scale(0.1 -0.1)"/>
      <!-- 8 -->
      <g transform="translate(384.030516 936.974375)scale(0.1 -0.1)">
       <use xlink:href="#DejaVuSans-38"/>
      </g>
      <!-- 86 -->
      <g transform="translate(377.668016 948.172188)scale(0.1 -0.1)">
       <use xlink:href="#DejaVuSans-38"/>
       <use xlink:href="#DejaVuSans-36" x="63.623047"/>
      </g>
      <!-- 58 -->
      <g transform="translate(377.668016 959.37)scale(0.1 -0.1)">
       <use xlink:href="#DejaVuSans-35"/>
       <use xlink:href="#DejaVuSans-38" x="63.623047"/>
      </g>
     </g>
    </g>
    <g id="xtick_13">
     <g id="text_23">
      <!--  -->
      <g transform="translate(474.378567 813.798437)scale(0.1 -0.1)"/>
      <!-- 2 -->
      <g transform="translate(468.016067 824.99625)scale(0.1 -0.1)">
       <use xlink:href="#DejaVuSans-32"/>
      </g>
      <!-- 141 -->
      <g transform="translate(455.291067 836.194062)scale(0.1 -0.1)">
       <use xlink:href="#DejaVuSans-31"/>
       <use xlink:href="#DejaVuSans-34" x="63.623047"/>
       <use xlink:href="#DejaVuSans-31" x="127.246094"/>
      </g>
      <!-- 61 -->
      <g transform="translate(461.653567 847.391875)scale(0.1 -0.1)">
       <use xlink:href="#DejaVuSans-36"/>
       <use xlink:href="#DejaVuSans-31" x="63.623047"/>
      </g>
      <!--  -->
      <g transform="translate(474.378567 858.589687)scale(0.1 -0.1)"/>
      <!--  -->
      <g transform="translate(474.378567 869.7875)scale(0.1 -0.1)"/>
      <!-- 0 -->
      <g transform="translate(468.016067 880.985312)scale(0.1 -0.1)">
       <use xlink:href="#DejaVuSans-30"/>
      </g>
      <!-- 86 -->
      <g transform="translate(461.653567 892.183125)scale(0.1 -0.1)">
       <use xlink:href="#DejaVuSans-38"/>
       <use xlink:href="#DejaVuSans-36" x="63.623047"/>
      </g>
      <!-- 62 -->
      <g transform="translate(461.653567 903.380938)scale(0.1 -0.1)">
       <use xlink:href="#DejaVuSans-36"/>
       <use xlink:href="#DejaVuSans-32" x="63.623047"/>
      </g>
      <!--  -->
      <g transform="translate(474.378567 914.57875)scale(0.1 -0.1)"/>
      <!--  -->
      <g transform="translate(474.378567 925.776563)scale(0.1 -0.1)"/>
      <!-- 4 -->
      <g transform="translate(468.016067 936.974375)scale(0.1 -0.1)">
       <use xlink:href="#DejaVuSans-34"/>
      </g>
      <!-- 89 -->
      <g transform="translate(461.653567 948.172188)scale(0.1 -0.1)">
       <use xlink:href="#DejaVuSans-38"/>
       <use xlink:href="#DejaVuSans-39" x="63.623047"/>
      </g>
      <!-- 59 -->
      <g transform="translate(461.653567 959.37)scale(0.1 -0.1)">
       <use xlink:href="#DejaVuSans-35"/>
       <use xlink:href="#DejaVuSans-39" x="63.623047"/>
      </g>
     </g>
    </g>
    <g id="xtick_14">
     <g id="text_24">
      <!--  -->
      <g transform="translate(558.364118 813.798437)scale(0.1 -0.1)"/>
      <!-- 0 -->
      <g transform="translate(552.001618 824.99625)scale(0.1 -0.1)">
       <use xlink:href="#DejaVuSans-30"/>
      </g>
      <!-- 142 -->
      <g transform="translate(539.276618 836.194062)scale(0.1 -0.1)">
       <use xlink:href="#DejaVuSans-31"/>
       <use xlink:href="#DejaVuSans-34" x="63.623047"/>
       <use xlink:href="#DejaVuSans-32" x="127.246094"/>
      </g>
      <!-- 62 -->
      <g transform="translate(545.639118 847.391875)scale(0.1 -0.1)">
       <use xlink:href="#DejaVuSans-36"/>
       <use xlink:href="#DejaVuSans-32" x="63.623047"/>
      </g>
      <!--  -->
      <g transform="translate(558.364118 858.589687)scale(0.1 -0.1)"/>
      <!--  -->
      <g transform="translate(558.364118 869.7875)scale(0.1 -0.1)"/>
      <!-- 0 -->
      <g transform="translate(552.001618 880.985312)scale(0.1 -0.1)">
       <use xlink:href="#DejaVuSans-30"/>
      </g>
      <!-- 86 -->
      <g transform="translate(545.639118 892.183125)scale(0.1 -0.1)">
       <use xlink:href="#DejaVuSans-38"/>
       <use xlink:href="#DejaVuSans-36" x="63.623047"/>
      </g>
      <!-- 62 -->
      <g transform="translate(545.639118 903.380938)scale(0.1 -0.1)">
       <use xlink:href="#DejaVuSans-36"/>
       <use xlink:href="#DejaVuSans-32" x="63.623047"/>
      </g>
      <!--  -->
      <g transform="translate(558.364118 914.57875)scale(0.1 -0.1)"/>
      <!--  -->
      <g transform="translate(558.364118 925.776563)scale(0.1 -0.1)"/>
      <!-- 3 -->
      <g transform="translate(552.001618 936.974375)scale(0.1 -0.1)">
       <use xlink:href="#DejaVuSans-33"/>
      </g>
      <!-- 90 -->
      <g transform="translate(545.639118 948.172188)scale(0.1 -0.1)">
       <use xlink:href="#DejaVuSans-39"/>
       <use xlink:href="#DejaVuSans-30" x="63.623047"/>
      </g>
      <!-- 59 -->
      <g transform="translate(545.639118 959.37)scale(0.1 -0.1)">
       <use xlink:href="#DejaVuSans-35"/>
       <use xlink:href="#DejaVuSans-39" x="63.623047"/>
      </g>
     </g>
    </g>
    <g id="xtick_15">
     <g id="text_25">
      <!--  -->
      <g transform="translate(642.349669 813.798437)scale(0.1 -0.1)"/>
      <!-- 0 -->
      <g transform="translate(635.987169 824.99625)scale(0.1 -0.1)">
       <use xlink:href="#DejaVuSans-30"/>
      </g>
      <!-- 142 -->
      <g transform="translate(623.262169 836.194062)scale(0.1 -0.1)">
       <use xlink:href="#DejaVuSans-31"/>
       <use xlink:href="#DejaVuSans-34" x="63.623047"/>
       <use xlink:href="#DejaVuSans-32" x="127.246094"/>
      </g>
      <!-- 62 -->
      <g transform="translate(629.624669 847.391875)scale(0.1 -0.1)">
       <use xlink:href="#DejaVuSans-36"/>
       <use xlink:href="#DejaVuSans-32" x="63.623047"/>
      </g>
      <!--  -->
      <g transform="translate(642.349669 858.589687)scale(0.1 -0.1)"/>
      <!--  -->
      <g transform="translate(642.349669 869.7875)scale(0.1 -0.1)"/>
      <!-- 0 -->
      <g transform="translate(635.987169 880.985312)scale(0.1 -0.1)">
       <use xlink:href="#DejaVuSans-30"/>
      </g>
      <!-- 86 -->
      <g transform="translate(629.624669 892.183125)scale(0.1 -0.1)">
       <use xlink:href="#DejaVuSans-38"/>
       <use xlink:href="#DejaVuSans-36" x="63.623047"/>
      </g>
      <!-- 62 -->
      <g transform="translate(629.624669 903.380938)scale(0.1 -0.1)">
       <use xlink:href="#DejaVuSans-36"/>
       <use xlink:href="#DejaVuSans-32" x="63.623047"/>
      </g>
      <!--  -->
      <g transform="translate(642.349669 914.57875)scale(0.1 -0.1)"/>
      <!--  -->
      <g transform="translate(642.349669 925.776563)scale(0.1 -0.1)"/>
      <!-- 3 -->
      <g transform="translate(635.987169 936.974375)scale(0.1 -0.1)">
       <use xlink:href="#DejaVuSans-33"/>
      </g>
      <!-- 90 -->
      <g transform="translate(629.624669 948.172188)scale(0.1 -0.1)">
       <use xlink:href="#DejaVuSans-39"/>
       <use xlink:href="#DejaVuSans-30" x="63.623047"/>
      </g>
      <!-- 59 -->
      <g transform="translate(629.624669 959.37)scale(0.1 -0.1)">
       <use xlink:href="#DejaVuSans-35"/>
       <use xlink:href="#DejaVuSans-39" x="63.623047"/>
      </g>
     </g>
    </g>
    <g id="xtick_16">
     <g id="text_26">
      <!--  -->
      <g transform="translate(726.33522 813.798437)scale(0.1 -0.1)"/>
      <!-- 0 -->
      <g transform="translate(719.97272 824.99625)scale(0.1 -0.1)">
       <use xlink:href="#DejaVuSans-30"/>
      </g>
      <!-- 142 -->
      <g transform="translate(707.24772 836.194062)scale(0.1 -0.1)">
       <use xlink:href="#DejaVuSans-31"/>
       <use xlink:href="#DejaVuSans-34" x="63.623047"/>
       <use xlink:href="#DejaVuSans-32" x="127.246094"/>
      </g>
      <!-- 62 -->
      <g transform="translate(713.61022 847.391875)scale(0.1 -0.1)">
       <use xlink:href="#DejaVuSans-36"/>
       <use xlink:href="#DejaVuSans-32" x="63.623047"/>
      </g>
      <!--  -->
      <g transform="translate(726.33522 858.589687)scale(0.1 -0.1)"/>
      <!--  -->
      <g transform="translate(726.33522 869.7875)scale(0.1 -0.1)"/>
      <!-- 0 -->
      <g transform="translate(719.97272 880.985312)scale(0.1 -0.1)">
       <use xlink:href="#DejaVuSans-30"/>
      </g>
      <!-- 86 -->
      <g transform="translate(713.61022 892.183125)scale(0.1 -0.1)">
       <use xlink:href="#DejaVuSans-38"/>
       <use xlink:href="#DejaVuSans-36" x="63.623047"/>
      </g>
      <!-- 62 -->
      <g transform="translate(713.61022 903.380938)scale(0.1 -0.1)">
       <use xlink:href="#DejaVuSans-36"/>
       <use xlink:href="#DejaVuSans-32" x="63.623047"/>
      </g>
      <!--  -->
      <g transform="translate(726.33522 914.57875)scale(0.1 -0.1)"/>
      <!--  -->
      <g transform="translate(726.33522 925.776563)scale(0.1 -0.1)"/>
      <!-- 2 -->
      <g transform="translate(719.97272 936.974375)scale(0.1 -0.1)">
       <use xlink:href="#DejaVuSans-32"/>
      </g>
      <!-- 91 -->
      <g transform="translate(713.61022 948.172188)scale(0.1 -0.1)">
       <use xlink:href="#DejaVuSans-39"/>
       <use xlink:href="#DejaVuSans-31" x="63.623047"/>
      </g>
      <!-- 59 -->
      <g transform="translate(713.61022 959.37)scale(0.1 -0.1)">
       <use xlink:href="#DejaVuSans-35"/>
       <use xlink:href="#DejaVuSans-39" x="63.623047"/>
      </g>
     </g>
    </g>
   </g>
  </g>
  <g id="text_27">
   <!-- Survival by Cluster -->
   <g transform="translate(375.339375 26.398125)scale(0.12 -0.12)">
    <defs>
     <path id="DejaVuSans-53" d="M 3425 4513 
L 3425 3897 
Q 3066 4069 2747 4153 
Q 2428 4238 2131 4238 
Q 1616 4238 1336 4038 
Q 1056 3838 1056 3469 
Q 1056 3159 1242 3001 
Q 1428 2844 1947 2747 
L 2328 2669 
Q 3034 2534 3370 2195 
Q 3706 1856 3706 1288 
Q 3706 609 3251 259 
Q 2797 -91 1919 -91 
Q 1588 -91 1214 -16 
Q 841 59 441 206 
L 441 856 
Q 825 641 1194 531 
Q 1563 422 1919 422 
Q 2459 422 2753 634 
Q 3047 847 3047 1241 
Q 3047 1584 2836 1778 
Q 2625 1972 2144 2069 
L 1759 2144 
Q 1053 2284 737 2584 
Q 422 2884 422 3419 
Q 422 4038 858 4394 
Q 1294 4750 2059 4750 
Q 2388 4750 2728 4690 
Q 3069 4631 3425 4513 
z
" transform="scale(0.015625)"/>
     <path id="DejaVuSans-61" d="M 2194 1759 
Q 1497 1759 1228 1600 
Q 959 1441 959 1056 
Q 959 750 1161 570 
Q 1363 391 1709 391 
Q 2188 391 2477 730 
Q 2766 1069 2766 1631 
L 2766 1759 
L 2194 1759 
z
M 3341 1997 
L 3341 0 
L 2766 0 
L 2766 531 
Q 2569 213 2275 61 
Q 1981 -91 1556 -91 
Q 1019 -91 701 211 
Q 384 513 384 1019 
Q 384 1609 779 1909 
Q 1175 2209 1959 2209 
L 2766 2209 
L 2766 2266 
Q 2766 2663 2505 2880 
Q 2244 3097 1772 3097 
Q 1472 3097 1187 3025 
Q 903 2953 641 2809 
L 641 3341 
Q 956 3463 1253 3523 
Q 1550 3584 1831 3584 
Q 2591 3584 2966 3190 
Q 3341 2797 3341 1997 
z
" transform="scale(0.015625)"/>
     <path id="DejaVuSans-62" d="M 3116 1747 
Q 3116 2381 2855 2742 
Q 2594 3103 2138 3103 
Q 1681 3103 1420 2742 
Q 1159 2381 1159 1747 
Q 1159 1113 1420 752 
Q 1681 391 2138 391 
Q 2594 391 2855 752 
Q 3116 1113 3116 1747 
z
M 1159 2969 
Q 1341 3281 1617 3432 
Q 1894 3584 2278 3584 
Q 2916 3584 3314 3078 
Q 3713 2572 3713 1747 
Q 3713 922 3314 415 
Q 2916 -91 2278 -91 
Q 1894 -91 1617 61 
Q 1341 213 1159 525 
L 1159 0 
L 581 0 
L 581 4863 
L 1159 4863 
L 1159 2969 
z
" transform="scale(0.015625)"/>
     <path id="DejaVuSans-79" d="M 2059 -325 
Q 1816 -950 1584 -1140 
Q 1353 -1331 966 -1331 
L 506 -1331 
L 506 -850 
L 844 -850 
Q 1081 -850 1212 -737 
Q 1344 -625 1503 -206 
L 1606 56 
L 191 3500 
L 800 3500 
L 1894 763 
L 2988 3500 
L 3597 3500 
L 2059 -325 
z
" transform="scale(0.015625)"/>
    </defs>
    <use xlink:href="#DejaVuSans-53"/>
    <use xlink:href="#DejaVuSans-75" x="63.476562"/>
    <use xlink:href="#DejaVuSans-72" x="126.855469"/>
    <use xlink:href="#DejaVuSans-76" x="167.96875"/>
    <use xlink:href="#DejaVuSans-69" x="227.148438"/>
    <use xlink:href="#DejaVuSans-76" x="254.931641"/>
    <use xlink:href="#DejaVuSans-61" x="314.111328"/>
    <use xlink:href="#DejaVuSans-6c" x="375.390625"/>
    <use xlink:href="#DejaVuSans-20" x="403.173828"/>
    <use xlink:href="#DejaVuSans-62" x="434.960938"/>
    <use xlink:href="#DejaVuSans-79" x="498.4375"/>
    <use xlink:href="#DejaVuSans-20" x="557.617188"/>
    <use xlink:href="#DejaVuSans-43" x="589.404297"/>
    <use xlink:href="#DejaVuSans-6c" x="659.228516"/>
    <use xlink:href="#DejaVuSans-75" x="687.011719"/>
    <use xlink:href="#DejaVuSans-73" x="750.390625"/>
    <use xlink:href="#DejaVuSans-74" x="802.490234"/>
    <use xlink:href="#DejaVuSans-65" x="841.699219"/>
    <use xlink:href="#DejaVuSans-72" x="903.222656"/>
   </g>
  </g>
 </g>
 <defs>
  <clipPath id="p71f545a621">
   <rect x="108" y="103.68" width="669.6" height="652.32"/>
  </clipPath>
 </defs>
</svg>
